<?xml version="1.0" encoding="utf-8"?>
<!-- Generator: Adobe Illustrator 25.2.3, SVG Export Plug-In . SVG Version: 6.00 Build 0)  -->
<svg version="1.1" id="Layer_1" focusable="false" xmlns="http://www.w3.org/2000/svg" xmlns:xlink="http://www.w3.org/1999/xlink"
	 x="0px" y="0px" viewBox="0 0 32 32" style="enable-background:new 0 0 32 32;" xml:space="preserve">
<style type="text/css">
	.st0{fill:#231F20;}
</style>
<path class="st0" d="M22.3,16.2l-1.8-0.3c0.2-1.2,0.5-3.5,0.6-4.3c0.2-1.1-0.2-2.6-1.5-3.6c0.5-0.2,1-0.5,1.4-1
	c0.7-0.7,1-1.7,0.9-2.7c-0.1-1-0.5-1.9-1.2-2.5c-0.7-0.7-1.7-1-2.7-0.9c-2,0.1-3.6,1.9-3.5,3.9c0.1,0.9,0.4,1.7,1,2.3
	c-0.7,0.1-1.1,0.4-1.2,0.5c0,0-0.1,0.1-0.1,0.1C14.2,7.8,14,8,14,8c-0.2,0.3-1.3,1.6-2.1,2.8l-0.1-1.5C11.5,8,10.4,6.9,9,6.9H8.2
	c-0.5,0-0.8,0.4-0.8,0.8c0,0.5,0.4,0.8,0.8,0.8H9c0.5,0,1,0.4,1,0.9l0.4,4.1c0,0,0,0,0,0c-0.8,0.2-1.5,0.6-2.2,1.1
	c0,0-0.1,0.1-0.1,0.1c-0.7,0.5-1.3,1.1-1.8,1.7c0,0-0.1,0.1-0.1,0.1c-0.3,0.4-0.6,0.8-0.9,1.3c-0.7,1.3-1.1,2.8-1.1,4.4c0,5,4,9,9,9
	c2.9,0,5.6-1.4,7.3-3.7l-0.1,0.7c-0.1,0.7,0.2,1.4,0.6,1.9s1.1,0.9,1.8,0.9c1.5,0.1,2.7-1,2.9-2.4l0.7-7.3
	C26.6,19,24.8,16.7,22.3,16.2z M18.4,2.5c0.5,0,1,0.2,1.3,0.5c0.4,0.4,0.6,0.9,0.7,1.4c0,0.5-0.1,1.1-0.5,1.5
	c-0.4,0.4-0.9,0.6-1.4,0.7c-1.1,0.1-2.1-0.8-2.1-1.9c0-0.5,0.1-1.1,0.5-1.5c0.4-0.4,0.9-0.6,1.4-0.7L18.4,2.5z M10.4,15.4
	c0.1,0,0.2-0.1,0.3-0.1c0.1,0.3,0.1,0.6,0.2,0.9c-2.5,0.9-4.2,3.3-4.2,6c0,3.5,2.9,6.4,6.4,6.4s6.4-2.9,6.4-6.4c0-0.4,0-0.7-0.1-1.1
	l1,0.1c0,0.3,0.1,0.6,0.1,1c0,4.1-3.3,7.4-7.4,7.4c-4.1,0-7.4-3.3-7.4-7.4c0-1.2,0.3-2.5,0.9-3.6C7.5,17.2,8.8,16.1,10.4,15.4z
	 M16.4,20.7l1.2,0.2c0.1,0.4,0.2,0.9,0.2,1.4c0,2.6-2.1,4.7-4.7,4.7c-2.6,0-4.7-2.1-4.7-4.7c0-2,1.2-3.7,3-4.4l0.1,0.2
	c0.4,1.1,1.5,1.7,2.6,1.5C14.7,20.2,15.5,20.6,16.4,20.7z M22.6,22c0.1-1.1-0.7-2.1-1.8-2.3l-4.1-0.6c-0.4-0.1-0.8-0.2-1.1-0.4
	c0.4-0.5,0.5-1.2,0.4-1.9l-0.5-2.4l0.8-0.9c0.3-0.4,0.2-0.9-0.1-1.2c-0.1-0.1-0.2-0.1-0.3-0.2c-0.3-0.1-0.7,0-0.9,0.3l-1,1.2
	c-0.2,0.2-0.2,0.4-0.2,0.7l0.5,2.9c0.1,0.3-0.1,0.7-0.5,0.8c-0.3,0.1-0.7-0.1-0.8-0.4c-0.5-1.5-0.8-2.5-0.8-3l-0.1-0.9
	c0.2-0.6,1.8-2.8,3.2-4.6c0,0,0.4-0.4,1.6-0.4l0.1,0c0.3,0,0.5,0.1,0.8,0.2c1.5,0.4,1.9,1.8,1.8,2.6c-0.2,1.2-0.7,5.1-0.7,5.1
	c-0.1,0.4,0.2,0.8,0.7,0.9l2.5,0.5c1.7,0.3,2.8,1.8,2.6,3.5L24,28.7c-0.1,0.5-0.5,0.9-1.1,0.9c-0.3,0-0.5-0.1-0.7-0.3
	C22,29,22,28.7,22,28.5L22.6,22z"/>
</svg>
