<?xml version="1.0" encoding="utf-8"?>
<!-- Generator: Adobe Illustrator 25.2.3, SVG Export Plug-In . SVG Version: 6.00 Build 0)  -->
<svg version="1.1" id="Layer_1" focusable="false" xmlns="http://www.w3.org/2000/svg" xmlns:xlink="http://www.w3.org/1999/xlink"
	 x="0px" y="0px" viewBox="0 0 32 32" style="enable-background:new 0 0 32 32;" xml:space="preserve">
<g>
	<path d="M29.7,11.3H9.2c0.1-0.1,0.1-0.3,0.1-0.4c0-0.2-0.1-0.5-0.3-0.6C8.8,10,8.2,9.9,7.8,9.9l-0.5,0l0,0.5c0,0.3,0.1,0.7,0.2,1
		H3.1V5.4c0-0.5,0.4-0.8,0.8-0.8c0.4,0,0.7,0.2,0.8,0.6L4,5.7C3.8,5.8,3.7,6,3.7,6.3c0,0.3,0,0.5,0.2,0.7C4,7.3,4.4,7.4,4.7,7.4
		l0,0.1c0,0.4,0.1,1,0.4,1.2h0v0C5.3,8.9,5.5,9,5.8,9c0,0,0,0,0,0C6,9,6.2,8.9,6.4,8.7c0.2-0.2,0.3-0.4,0.3-0.6
		c0-0.2-0.1-0.5-0.3-0.6C6.2,7.2,5.7,7.1,5.3,7.1l2.3-1.7l0,0.4c0,0.4,0.1,1,0.4,1.2c0.2,0.2,0.4,0.3,0.6,0.3c0.2,0,0.5-0.1,0.6-0.3
		c0.4-0.4,0.4-0.9,0-1.3C9.1,5.4,8.4,5.4,8.1,5.3l-0.4,0l0.5-0.4c0.2-0.2,0.3-0.4,0.4-0.6c0-0.3,0-0.5-0.2-0.7
		C8.3,3.4,8.1,3.2,7.8,3.2c-0.3,0-0.5,0-0.7,0.2L6.3,4C5.8,3.1,5,2.6,4,2.6c-1.5,0-2.8,1.2-2.8,2.8V16c0,2.4,1.8,4.4,4.1,4.7
		l-1.1,1.1c-0.4,0.4-0.4,1,0,1.4c0.4,0.4,1,0.4,1.4,0L8,20.8h16l2.4,2.4c0.2,0.2,0.4,0.3,0.7,0.3c0.3,0,0.5-0.1,0.7-0.3
		c0.4-0.4,0.4-1,0-1.4l-1.1-1.1c2.3-0.3,4.1-2.3,4.1-4.7v-3.8C30.7,11.7,30.2,11.3,29.7,11.3z M28.8,13.2V16c0,1.6-1.3,2.8-2.8,2.8
		H6c-1.6,0-2.8-1.3-2.8-2.8v-2.8H28.8z"/>
	<path d="M7.8,7.4l-0.5,0l0,0.5c0,0.4,0.1,1,0.4,1.2C8,9.2,8.2,9.3,8.4,9.3c0,0,0,0,0,0c0.2,0,0.5-0.1,0.6-0.3
		c0.2-0.2,0.3-0.4,0.3-0.6c0-0.2-0.1-0.5-0.3-0.6l0,0C8.8,7.5,8.2,7.4,7.8,7.4z"/>
	<path d="M10.3,9.6c0.2,0.2,0.4,0.3,0.6,0.3c0,0,0,0,0,0c0.2,0,0.5-0.1,0.6-0.3c0.4-0.4,0.4-0.9,0-1.3C11.3,8.1,10.7,8,10.4,8
		l-0.5,0l0,0.5C10,8.8,10.1,9.4,10.3,9.6z"/>
</g>
</svg>
