<?xml version="1.0" encoding="utf-8"?>
<!-- Generator: Adobe Illustrator 25.2.3, SVG Export Plug-In . SVG Version: 6.00 Build 0)  -->
<svg version="1.1" id="Layer_1" focusable="false" xmlns="http://www.w3.org/2000/svg" xmlns:xlink="http://www.w3.org/1999/xlink"
	 x="0px" y="0px" viewBox="0 0 32 32" style="enable-background:new 0 0 32 32;" xml:space="preserve">
<path d="M30.2,10.1c-0.4,0-0.8,0.4-0.8,0.8v1.8H9.9c0.1-0.3,0.2-0.6,0.2-0.9c0-1.4-1.6-2.5-3.6-2.5c-2,0-3.6,1.1-3.6,2.5
	c0,0.3,0.1,0.6,0.2,0.9H2.6V6c0-0.4-0.4-0.8-0.8-0.8C1.4,5.2,1,5.6,1,6v17.7h1.6v-4.9h26.8v4.9H31V10.9C31,10.5,30.7,10.1,30.2,10.1
	z M6.5,12.7c-1.2,0-2-0.6-2-0.9s0.8-0.9,2-0.9c1.2,0,2,0.6,2,0.9S7.7,12.7,6.5,12.7z M29.4,14.3v2.9H2.6v-2.9H29.4z"/>
</svg>
