<?xml version="1.0" encoding="utf-8"?>
<!-- Generator: Adobe Illustrator 25.2.3, SVG Export Plug-In . SVG Version: 6.00 Build 0)  -->
<svg version="1.1" id="Layer_1" focusable="false" xmlns="http://www.w3.org/2000/svg" xmlns:xlink="http://www.w3.org/1999/xlink"
	 x="0px" y="0px" viewBox="0 0 32 32" style="enable-background:new 0 0 32 32;" xml:space="preserve">
<path d="M11.7,0l0,1.7h8.7l0-1.7h2l0,1.7l6,0c1.1,0,1.9,0.8,2,1.9l0,0.1v15.9c0,0.5-0.2,0.9-0.5,1.3L29.7,21L21,29.7
	c-0.3,0.3-0.8,0.5-1.2,0.6l-0.2,0H6.7c-2.7,0-4.9-2.1-5-4.8l0-0.2V3.7c0-1.1,0.8-1.9,1.9-2l0.1,0l6,0l0-1.7L11.7,0z M28.3,11.7H3.7
	v13.7c0,1.6,1.2,2.9,2.8,3l0.2,0l11,0l0-5.7c0-2.7,2.1-4.9,4.8-5l0.2,0l5.7,0L28.3,11.7z M28.3,19.7l-5.6,0c-1.6,0-2.9,1.2-3,2.8
	l0,0.2l0,5.6L28.3,19.7z M9.7,3.7l-6,0v6h24.7l0-6l-6,0l0,1.7h-2l0-1.7h-8.7l0,1.7h-2L9.7,3.7z"/>
</svg>
