<?xml version="1.0" encoding="utf-8"?>
<!-- Generator: Adobe Illustrator 25.2.3, SVG Export Plug-In . SVG Version: 6.00 Build 0)  -->
<svg version="1.1" id="Layer_1" focusable="false" xmlns="http://www.w3.org/2000/svg" xmlns:xlink="http://www.w3.org/1999/xlink"
	 x="0px" y="0px" viewBox="0 0 32 32" style="enable-background:new 0 0 32 32;" xml:space="preserve">
<path d="M14,27l0,0.2c-0.1,2-1.7,3.7-3.8,3.8L10,31H4v-2h6l0.1,0c1-0.1,1.8-0.9,1.8-1.8l0-0.2H14z M10,1c0.5,0,1.1,0,1.6,0.1L12,1.2
	l17.4,3.6C30.3,5,30.9,5.8,31,6.6l0,0.2v6.4c0,0.9-0.6,1.7-1.4,1.9l-0.2,0L15.9,18l1.8,6.5c0.3,1.1-0.3,2.2-1.4,2.5
	C16.1,27,16,27,15.9,27l-0.2,0h-3.9c-0.8,0-1.6-0.5-1.9-1.3l0-0.1L8,18.8c-4.8-1.1-7.9-6-6.7-10.8C2.2,3.9,5.8,1,10,1z M15.7,25
	l-1.8-6.6l-1.8,0.4C11.5,18.9,11,19,10.4,19l-0.3,0l1.7,6H15.7z M10,3c-3.9,0-7,3.1-7,7c0,3.9,3.1,7,7,7c0.4,0,0.9,0,1.3-0.1
	l0.3-0.1L29,13.2V6.8L11.5,3.2C11,3.1,10.5,3,10,3z M10,5c2.8,0,5,2.2,5,5s-2.2,5-5,5s-5-2.2-5-5S7.2,5,10,5z M10,7
	c-1.7,0-3,1.3-3,3s1.3,3,3,3s3-1.3,3-3S11.7,7,10,7z"/>
</svg>
