<?xml version="1.0" encoding="utf-8"?>
<!-- Generator: Adobe Illustrator 25.2.3, SVG Export Plug-In . SVG Version: 6.00 Build 0)  -->
<svg version="1.1" id="Layer_1" focusable="false" xmlns="http://www.w3.org/2000/svg" xmlns:xlink="http://www.w3.org/1999/xlink"
	 x="0px" y="0px" viewBox="0 0 32 32" style="enable-background:new 0 0 32 32;" xml:space="preserve">
<path d="M26,19c0,0.6-0.4,1-1,1s-1-0.4-1-1s0.4-1,1-1S26,18.4,26,19z M7,18c-0.6,0-1,0.4-1,1s0.4,1,1,1s1-0.4,1-1S7.6,18,7,18z
	 M27.7,13l0.4,1.1C29.3,15,30,16.4,30,18v9c0,1.1-0.9,2-2,2h-2c-1.1,0-2-0.9-2-2v-2H8v2c0,1.1-0.9,2-2,2H4c-1.1,0-2-0.9-2-2v-9
	c0-1.6,0.7-3,1.9-3.9L4.3,13H2v-2h3v0.2l1.8-4.9C7.1,5.5,7.9,5,8.7,5h14.6c0.8,0,1.6,0.5,1.9,1.3l1.8,4.9V11h3v2H27.7z M6,25H4v2h2
	V25z M28,25h-2v2h2V25z M28,23v-5c0-1.7-1.3-3-3-3H7c-1.7,0-3,1.3-3,3v5H28z M25,13h0.6l-2.2-6H8.7l-2.2,6H25z M10,20h12v-2H10V20z"
	/>
</svg>
