<?xml version="1.0" encoding="utf-8"?>
<!-- Generator: Adobe Illustrator 25.2.3, SVG Export Plug-In . SVG Version: 6.00 Build 0)  -->
<svg version="1.1" id="Layer_1" focusable="false" xmlns="http://www.w3.org/2000/svg" xmlns:xlink="http://www.w3.org/1999/xlink"
	 x="0px" y="0px" viewBox="0 0 32 32" style="enable-background:new 0 0 32 32;" xml:space="preserve">
<style type="text/css">
	.st0{opacity:0.8;enable-background:new    ;}
	.st1{display:none;fill:none;stroke:#FFFFFF;stroke-width:5;stroke-miterlimit:10;}
	.st2{fill:none;stroke:#000000;stroke-width:5;stroke-miterlimit:10;}
</style>
<path class="st0" d="M15,8c0,2.2-1.8,4-4,4s-4-1.8-4-4s1.8-4,4-4S15,5.8,15,8z M21,12c2.2,0,4-1.8,4-4s-1.8-4-4-4s-4,1.8-4,4
	S18.8,12,21,12z M31,16c0-2.2-1.8-4-4-4s-4,1.8-4,4s1.8,4,4,4S31,18.2,31,16z M1,16c0,2.2,1.8,4,4,4s4-1.8,4-4s-1.8-4-4-4
	S1,13.8,1,16z M8.9,27.2l0.2,0.1c0.9,0.6,2.1,0.8,3.1,0.5l3.7-1l3.7,1c2.1,0.6,4.3-0.7,4.9-2.8c0.3-1.1,0.1-2.4-0.6-3.3l-4.8-6.8
	c-1.2-1.7-3.6-2.2-5.4-1.1l-0.2,0.1c-0.4,0.3-0.7,0.6-1,1L8,21.6C6.7,23.5,7.1,26,8.9,27.2L8.9,27.2z"/>
<line class="st1" x1="1.4" y1="29.4" x2="29.4" y2="1.4"/>
<line class="st2" x1="2" y1="30" x2="30" y2="2"/>
</svg>
