<?xml version="1.0" encoding="utf-8"?>
<!-- Generator: Adobe Illustrator 25.2.3, SVG Export Plug-In . SVG Version: 6.00 Build 0)  -->
<svg version="1.1" id="Layer_1" focusable="false" xmlns="http://www.w3.org/2000/svg" xmlns:xlink="http://www.w3.org/1999/xlink"
	 x="0px" y="0px" viewBox="0 0 32 32" style="enable-background:new 0 0 32 32;" xml:space="preserve">
<path d="M15,8c0,2.2-1.8,4-4,4s-4-1.8-4-4s1.8-4,4-4S15,5.8,15,8z M21,12c2.2,0,4-1.8,4-4s-1.8-4-4-4s-4,1.8-4,4S18.8,12,21,12z
	 M31,16c0-2.2-1.8-4-4-4s-4,1.8-4,4s1.8,4,4,4S31,18.2,31,16z M1,16c0,2.2,1.8,4,4,4s4-1.8,4-4s-1.8-4-4-4S1,13.8,1,16z M8.9,27.2
	l0.2,0.1c0.9,0.6,2.1,0.8,3.1,0.5l3.7-1l3.7,1c2.1,0.6,4.3-0.7,4.9-2.8c0.3-1.1,0.1-2.4-0.6-3.3l-4.8-6.8c-1.2-1.7-3.6-2.2-5.4-1.1
	l-0.2,0.1c-0.4,0.3-0.7,0.6-1,1L8,21.6C6.7,23.5,7.1,26,8.9,27.2C8.9,27.2,8.9,27.2,8.9,27.2z"/>
</svg>
