<?xml version="1.0" encoding="utf-8"?>
<!-- Generator: Adobe Illustrator 25.2.3, SVG Export Plug-In . SVG Version: 6.00 Build 0)  -->
<svg version="1.1" id="Layer_1" focusable="false" xmlns="http://www.w3.org/2000/svg" xmlns:xlink="http://www.w3.org/1999/xlink"
	 x="0px" y="0px" viewBox="0 0 32 32" style="enable-background:new 0 0 32 32;" xml:space="preserve">
<g>
	<path d="M22.4,8.7L22.4,8.7c0-1.3-1.1-2.4-2.3-2.4H3.7c-1.3,0-2.3,1.1-2.3,2.3v3.9c0,1.3,1.1,2.3,2.3,2.3H20c1.3,0,2.3-1.1,2.3-2.3
		v-2.4c0.7,0.2,1.3,0.6,1.3,1.2v8.7c0,0.5-0.5,1-1.2,1.1c-0.2-3.1-2.8-5.6-5.9-5.6c-2.6,0-4.9,1.7-5.7,4.2H8v-0.2
		c0-0.8-0.6-1.3-1.3-1.3c-0.4,0-0.8,0.2-1,0.5c-0.2-0.3-0.6-0.5-1-0.5s-0.8,0.2-1,0.5c-0.2-0.3-0.6-0.5-1-0.5
		c-0.8,0-1.3,0.6-1.3,1.3v3.6c0,0.7,0.6,1.3,1.3,1.3h9c1.1,1.8,3,2.9,5.1,2.9c1.5,0,3.1-0.6,4.2-1.7c0.9-0.9,1.4-1.9,1.6-3
		c0.2,0,0.2,0,0.3,0c1.5-0.3,2.5-1.3,2.5-2.6v-8.9C25.2,9.9,24,8.8,22.4,8.7z M2.8,8.6c0-0.5,0.4-0.9,0.9-0.9H20
		c0.5,0,0.9,0.4,0.9,0.9v3.9c0,0.5-0.4,0.9-0.9,0.9H3.7c-0.5,0-0.9-0.4-0.9-0.9V8.6z M12.1,21.3l0.1-0.6c0.4-2.1,2.2-3.6,4.3-3.6
		c2.3,0,4.3,1.9,4.4,4.1c-0.2,0-0.4,0-0.5,0c-0.2-1.1-1.1-1.9-2.2-1.9c-1.2,0-2.2,1-2.2,2.2c0,1.2,1,2.2,2.2,2.2
		c0.9,0,1.5-0.5,1.9-1.1c0.2,0,0.4,0,0.6,0c-0.2,0.8-0.5,1.4-1.2,2c-0.9,0.9-1.9,1.3-3.2,1.3c-1.7,0-3.3-0.9-4-2.6l0.1-0.5H2.7v-1.7
		C2.7,21.3,12.1,21.3,12.1,21.3z M19.1,21.5c0,0.5-0.4,0.8-0.8,0.8c-0.5,0-0.8-0.4-0.8-0.8s0.4-0.8,0.8-0.8
		C18.7,20.8,19.1,21.1,19.1,21.5z"/>
	<path d="M4.7,10.9h6c0.3,0,0.4-0.1,0.5-0.2c0.3-0.3,0.3-0.8,0-1.1l0,0c-0.2-0.2-0.4-0.2-0.6-0.2h-6c-0.2,0-0.4,0.1-0.5,0.2
		c-0.3,0.4-0.3,0.9,0,1.2C4.2,10.9,4.5,10.9,4.7,10.9z"/>
</g>
</svg>
