<?xml version="1.0" encoding="utf-8"?>
<!-- Generator: Adobe Illustrator 25.2.3, SVG Export Plug-In . SVG Version: 6.00 Build 0)  -->
<svg version="1.1" id="Layer_1" focusable="false" xmlns="http://www.w3.org/2000/svg" xmlns:xlink="http://www.w3.org/1999/xlink"
	 x="0px" y="0px" viewBox="0 0 32 32" style="enable-background:new 0 0 32 32;" xml:space="preserve">
<path d="M9,29v-2h2v-2H6c-2.7,0-4.9-2.1-5-4.8L1,20V8c0-2.7,2.1-4.9,4.8-5L6,3h20c2.7,0,4.9,2.1,5,4.8L31,8v12c0,2.7-2.1,4.9-4.8,5
	L26,25h-5v2h2v2H9z M19,25h-6v2h6V25z M26,5H6C4.4,5,3.1,6.2,3,7.8L3,8v12c0,1.6,1.2,2.9,2.8,3L6,23h20c1.6,0,2.9-1.2,3-2.8l0-0.2V8
	c0-1.6-1.2-2.9-2.8-3L26,5z"/>
</svg>
