<?xml version="1.0" encoding="utf-8"?>
<!-- Generator: Adobe Illustrator 25.2.3, SVG Export Plug-In . SVG Version: 6.00 Build 0)  -->
<svg version="1.1" id="Layer_1" focusable="false" xmlns="http://www.w3.org/2000/svg" xmlns:xlink="http://www.w3.org/1999/xlink"
	 x="0px" y="0px" viewBox="0 0 32 32" style="enable-background:new 0 0 32 32;" xml:space="preserve">
<path d="M16,20.3c2,0,3.7,1.6,3.7,3.7S18,27.7,16,27.7S12.3,26,12.3,24S14,20.3,16,20.3z M16,22.3c-0.9,0-1.7,0.7-1.7,1.7
	s0.7,1.7,1.7,1.7s1.7-0.7,1.7-1.7S16.9,22.3,16,22.3z M16,15c3.5,0,6.6,2,8,5l-1.5,1.5C21.5,18.9,19,17,16,17s-5.5,1.9-6.5,4.5L8,20
	C9.4,17,12.5,15,16,15z M16,9.7c5,0,9.4,2.5,11.9,6.4l-1.4,1.4c-2.2-3.5-6.1-5.8-10.5-5.8S7.7,14,5.5,17.5l-1.4-1.4
	C6.6,12.2,11,9.7,16,9.7z M16,4.3c6.5,0,12.2,3.1,15.8,7.9l-1.4,1.4C27.1,9.2,21.9,6.3,16,6.3c-5.9,0-11.1,2.9-14.3,7.3l-1.4-1.4
	C3.8,7.4,9.5,4.3,16,4.3z"/>
</svg>
